# AST/ASF file generated using VICON BodyLanguage
# -----------------------------------------------
:version 1.10
:name VICON
:units
  mass 1.0
  length 0.45
  angle deg
:documentation
   .ast/.asf automatically generated from VICON data using
   VICON BodyBuilder and BodyLanguage model FoxedUp or BRILLIANT.MOD
:root
   order TX TY TZ RX RY RZ
   axis XYZ
   position 0 0 0  
   orientation 0 0 0 
:bonedata
  begin
     id 1 
     name lhipjoint
     direction 0.589753 -0.68606 0.426044 
     length 2.54082 
     axis 0 0 0  XYZ
  end
  begin
     id 2 
     name lfemur
     direction 0.34202 -0.939693 0  
     length 7.04539  
     axis 0 0 20  XYZ
    dof rx ry rz
    limits (-160.0 20.0)
           (-70.0 70.0)
           (-60.0 70.0)
  end
  begin
     id 3 
     name ltibia
     direction 0.34202 -0.939693 0   
     length 7.83772   
     axis 0 0 20   XYZ
    dof rx
    limits (-10.0 170.0)
  end
  begin
     id 4 
     name lfoot
     direction 0.0596604 -0.163915 0.984669   
     length 2.39542   
     axis -90 7.62852e-016 20   XYZ
    dof rx rz
    limits (-45.0 90.0)
           (-70.0 20.0)
  end
  begin
     id 5 
     name ltoes
     direction 1.53514e-011 -4.21954e-011 1   
     length 1.2047   
     axis -90 7.62852e-016 20   XYZ
    dof rx
    limits (-90.0 20.0)
  end
  begin
     id 6 
     name rhipjoint
     direction -0.580585 -0.69168 0.429534   
     length 2.52018  
     axis 0 0 0  XYZ 
  end
  begin
     id 7 
     name rfemur
     direction -0.34202 -0.939693 0   
     length 7.0101   
     axis 0 0 -20   XYZ
    dof rx ry rz
    limits (-160.0 20.0)
           (-70.0 70.0)
           (-70.0 60.0)
  end
  begin
     id 8 
     name rtibia
     direction -0.34202 -0.939693 0   
     length 7.70628   
     axis 0 0 -20   XYZ
    dof rx
    limits (-10.0 170.0)
 end
 begin
     id 9 
     name rfoot
     direction -0.0696237 -0.19129 0.979061   
     length 2.52466  
     axis -90 -7.62852e-016 -20   XYZ
    dof rx rz
    limits (-45.0 90.0)
           (-20.0 70.0)
  end
  begin
     id 10 
     name rtoes
     direction -1.53519e-011 -4.21793e-011 1   
     length 1.266   
     axis -90 -7.62852e-016 -20   XYZ
    dof rx
    limits (-90.0 20.0)
  end
  begin
     id 11 
     name lowerback
     direction 0.00381965 0.995707 -0.0924856   
     length 2.20825   
     axis 0 0 0   XYZ
    dof rx ry rz
    limits (-20.0 45.0)
           (-30.0 30.0)
           (-30.0 30.0)
  end
  begin
     id 12 
     name upperback
     direction -0.0139043 0.999634 -0.0231929   
     length 2.21517   
     axis 0 0 0   XYZ
    dof rx ry rz
    limits (-20.0 45.0)
           (-30.0 30.0)
           (-30.0 30.0)
  end
  begin
     id 13 
     name thorax
     direction -0.0143933 0.999691 0.0202892   
     length 2.22911   
     axis 0 0 0   XYZ
    dof rx ry rz
    limits (-20.0 45.0)
           (-30.0 30.0)
           (-30.0 30.0)
  end
  begin
     id 14 
     name lowerneck
     direction -0.0251153 0.981819 0.188153   
     length 1.61782   
     axis 0 0 0   XYZ
    dof rx ry rz
    limits (-20.0 45.0)
           (-30.0 30.0)
           (-30.0 30.0)
  end
  begin
     id 15 
     name upperneck
     direction 0.0563891 0.969357 -0.239095   
     length 1.64526   
     axis 0 0 0   XYZ
    dof rx ry rz
    limits (-20.0 45.0)
           (-30.0 30.0)
           (-30.0 30.0)
  end
  begin
     id 16
     name head
     direction 0.0208328 0.99459 -0.101773  
     length 1.67436  
     axis 0 0 0   XYZ
    dof rx ry rz
    limits (-20.0 45.0)
           (-30.0 30.0)
           (-30.0 30.0)
  end
  begin
     id 17 
     name lclavicle
     direction 0.917689 0.397224 0.00772059  
     length 3.31102  
     axis 0 0 0   XYZ
    dof ry rz
    limits (-20.0 10.0)
           (0.0 20.0)
  end
  begin
     id 18 
     name lhumerus
     direction 1 -4.4896e-011 2.32308e-027   
     length 5.25537   
     axis 180 -30 -90   XYZ
    dof rx ry rz
    limits (-60.0 90.0)
           (-90.0 90.0)
           (-90.0 90.0)
  end
  begin
     id 19
     name lradius
     direction 1 -4.49005e-011 -2.04271e-027   
     length 3.38855   
     axis 180 -30 -90   XYZ
    dof rx
    limits (-10.0 170.0)
  end
  begin
     id 20
     name lwrist
     direction 1 -4.48892e-011 2.56952e-028   
     length 1.69428   
     axis -5.12785e-016 90 90   XYZ
    dof ry
    limits (-180.0 0.0)
 end
  begin
     id 21 
     name lhand
     direction 1 -4.48966e-011 5.13905e-028   
     length 0.614516   
     axis -3.27915e-016 90 90   XYZ
    dof rx rz
    limits (-90.0 90.0)
           (-45.0 45.0)
  end
  begin
     id 22 
     name lfingers
     direction 1 -4.48979e-011 1.02781e-027   
     length 0.495439   
     axis -6.5583e-016 90 90   XYZ
    dof rx
    limits (0.0 90.0)
  end
  begin
     id 23
     name lthumb
     direction 0.707107 -6.35001e-011 0.707107   
     length 0.711354   
     axis -90 45 2.85299e-015   XYZ
    dof rx rz
    limits (-45.0 45.0)
           (-45.0 45.0)
  end
  begin
     id 24 
     name rclavicle
     direction -0.938556 0.342765 -0.0403177   
     length 3.27019  
     axis 0 0 0   XYZ 
    dof ry rz
    limits (-10.0 20.0)
           (-20.0 0.0)
  end
  begin
     id 25 
     name rhumerus
     direction -1 -4.48966e-011 2.52291e-027  
     length 5.38183   
     axis 180 30 90   XYZ
    dof rx ry rz
    limits (-90.0 60.0)
           (-90.0 90.0)
           (-90.0 90.0)
  end
  begin
     id 26 
     name rradius
     direction -1 -4.4896e-011 1.5797e-027   
     length 3.16988   
     axis 180 30 90   XYZ
    dof rx
    limits (-10.0 170.0)
  end
  begin
     id 27 
     name rwrist
     direction -1 -4.48947e-011 2.56952e-028   
     length 1.58494   
     axis -5.12785e-016 -90 -90   XYZ
    dof ry
    limits (-180.0 0.0)
  end
  begin
     id 28
     name rhand
     direction -1 -4.49098e-011 5.13905e-028   
     length 0.637679   
     axis -3.27915e-016 -90 -90   XYZ
    dof rx rz
    limits (-90.0 90.0)
           (-45.0 45.0)
  end
  begin
     id 29
     name rfingers
     direction -1 -4.49026e-011 1.02781e-027   
     length 0.514113   
     axis -6.5583e-016 -90 -90   XYZ
    dof rx
    limits (0.0 90.0)
  end
  begin
     id 30
     name rthumb
     direction -0.707107 -6.3491e-011 0.707107   
     length 0.738167   
     axis -90 -45 -2.85299e-015   XYZ
    dof rx rz
    limits (-45.0 45.0)
           (-45.0 45.0)
  end
:hierarchy
  begin
    root lhipjoint rhipjoint lowerback
    lhipjoint lfemur
    lfemur ltibia
    ltibia lfoot
    lfoot ltoes
    rhipjoint rfemur
    rfemur rtibia
    rtibia rfoot
    rfoot rtoes
    lowerback upperback
    upperback thorax
    thorax lowerneck lclavicle rclavicle
    lowerneck upperneck
    upperneck head
    lclavicle lhumerus
    lhumerus lradius
    lradius lwrist
    lwrist lhand lthumb
    lhand lfingers
    rclavicle rhumerus
    rhumerus rradius
    rradius rwrist
    rwrist rhand rthumb
    rhand rfingers
  end

#!OML:ASF H:\Swim\Project 1\Capture day 1\Session 1\swimmer.ASF
:FULLY-SPECIFIED
:DEGREES
936
root 4.23977 11.5586 7.37957 67.1526 -3.08322 -0.00138208
lowerback 13.7091 -0.128361 -2.33559
upperback -1.38363 -0.801804 -2.6093
thorax -9.21954 -0.342246 -1.31004
lowerneck -26.4749 -4.2208 -6.33591
upperneck 32.2431 -5.99261 7.18596
head 16.5049 -2.16131 2.94954
rclavicle 3.18055e-015 1.35174e-014
rhumerus -62.8626 25.14 -82.8105
rradius 89.3196
rwrist 28.5938
rhand -54.0282 -455.618
rfingers 7.12502
rthumb -26.4503 67.4435
lclavicle 3.18055e-015 1.35174e-014
lhumerus -65.9823 -29.6622 68.7846
lradius 104.039
lwrist -45.579
lhand -67.1227 -308.771
lfingers 7.12502
lthumb -38.9025 76.7773
rfemur -11.1827 3.8928 17.7809
rtibia 36.811
rfoot -8.74025 -9.29103
rtoes -17.8914
lfemur -22.3714 -10.062 -21.9111
ltibia 36.4133
lfoot -26.3264 3.19223
ltoes -23.3375
937
root 4.24172 11.5575 7.38583 67.0646 -3.05254 -0.00824467
lowerback 13.7143 -0.164111 -2.35947
upperback -1.34296 -0.854221 -2.63536
thorax -9.17856 -0.36715 -1.31289
lowerneck -26.4581 -4.21106 -6.33802
upperneck 32.2381 -5.96823 7.16141
head 16.4949 -2.1558 2.94412
rclavicle 6.36111e-015 2.0276e-014
rhumerus -62.5754 25.1308 -82.8061
rradius 89.0721
rwrist 28.5354
rhand -54.04 -455.738
rfingers 7.12502
rthumb -26.4616 67.5655
lclavicle 6.36111e-015 2.0276e-014
lhumerus -65.9868 -29.5561 68.791
lradius 104.1
lwrist -45.6784
lhand -67.0732 -308.558
lfingers 7.12502
lthumb -38.8558 77.0032
rfemur -10.8964 3.66349 17.8422
rtibia 36.6487
rfoot -8.59378 -9.20518
rtoes -18.1833
lfemur -22.7577 -10.6007 -21.8519
ltibia 36.3699
lfoot -27.0419 3.52003
ltoes -24.34
938
root 4.24381 11.5564 7.39219 66.9832 -3.00842 -0.0245124
lowerback 13.7023 -0.205869 -2.38329
upperback -1.3031 -0.912876 -2.65091
thorax -9.12842 -0.394807 -1.30316
lowerneck -26.4606 -4.19763 -6.34016
upperneck 32.2459 -5.93897 7.13839
head 16.4953 -2.14776 2.94087
rclavicle -1.19271e-015 1.78906e-014
rhumerus -62.2685 25.1773 -82.7993
rradius 88.8106
rwrist 28.4714
rhand -54.0467 -455.85
rfingers 7.12502
rthumb -26.468 67.6781
lclavicle -1.19271e-015 1.78906e-014
lhumerus -66.0211 -29.4766 68.804
lradius 104.176
lwrist -45.7553
lhand -67.0341 -308.428
lfingers 7.12502
lthumb -38.819 77.1438
rfemur -10.6196 3.43373 17.9184
rtibia 36.4849
rfoot -8.46709 -9.10572
rtoes -18.4758
lfemur -23.155 -11.141 -21.7676
ltibia 36.3207
lfoot -27.6928 3.93026
ltoes -25.3418
939
root 4.24593 11.5556 7.39851 66.9098 -2.9524 -0.0463849
lowerback 13.6785 -0.253732 -2.4129
upperback -1.26936 -0.97939 -2.65672
thorax -9.07798 -0.425682 -1.27814
lowerneck -26.4792 -4.18028 -6.3382
upperneck 32.2747 -5.90774 7.11857
head 16.5097 -2.13763 2.93949
rclavicle -6.75868e-015 -4.55217e-014
rhumerus -61.9531 25.278 -82.7924
rradius 88.5325
rwrist 28.3872
rhand -54.0471 -455.976
rfingers 7.12502
rthumb -26.4684 67.8043
lclavicle -6.75868e-015 -4.55217e-014
lhumerus -66.089 -29.4283 68.8283
lradius 104.259
lwrist -45.8191
lhand -67.0029 -308.302
lfingers 7.12502
lthumb -38.7896 77.2777
rfemur -10.3563 3.19674 18.0054
rtibia 36.3236
rfoot -8.34896 -8.99418
rtoes -18.7849
lfemur -23.565 -11.6851 -21.6595
ltibia 36.2655
lfoot -28.261 4.3747
ltoes -26.1953
940
root 4.24816 11.5553 7.40441 66.8449 -2.88441 -0.0698216
lowerback 13.645 -0.309283 -2.44944
upperback -1.24286 -1.05626 -2.65361
thorax -9.02949 -0.460941 -1.23757
lowerneck -26.5119 -4.15997 -6.33252
upperneck 32.321 -5.87711 7.10562
head 16.5364 -2.12606 2.94099
rclavicle -3.97569e-015 -6.75868e-015
rhumerus -61.633 25.4357 -82.7913
rradius 88.2438
rwrist 28.2593
rhand -54.0369 -456.101
rfingers 7.12502
rthumb -26.4586 67.9279
lclavicle -3.97569e-015 -6.75868e-015
lhumerus -66.1879 -29.4136 68.8603
lradius 104.35
lwrist -45.8538
lhand -66.9876 -308.279
lfingers 7.12502
lthumb -38.7752 77.3053
rfemur -10.1092 2.95612 18.1011
rtibia 36.1706
rfoot -8.23206 -8.88028
rtoes -19.0995
lfemur -23.9821 -12.232 -21.5307
ltibia 36.2051
lfoot -28.7587 4.74845
ltoes -26.7771
941
root 4.25093 11.5554 7.4094 66.7824 -2.78894 -0.0671208
lowerback 13.6084 -0.383999 -2.47667
upperback -1.22275 -1.1565 -2.64422
thorax -8.98626 -0.507694 -1.19079
lowerneck -26.5529 -4.13539 -6.31161
upperneck 32.384 -5.84635 7.08842
head 16.5727 -2.11301 2.93857
rclavicle 3.97569e-015 2.94201e-014
rhumerus -61.3157 25.647 -82.799
rradius 87.9467
rwrist 28.0837
rhand -54.0163 -456.222
rfingers 7.12502
rthumb -26.4389 68.0461
lclavicle 3.97569e-015 2.94201e-014
lhumerus -66.3152 -29.4391 68.8948
lradius 104.445
lwrist -45.8624
lhand -66.9907 -308.302
lfingers 7.12502
lthumb -38.7781 77.2812
rfemur -9.87146 2.69321 18.2073
rtibia 36.0345
rfoot -8.1271 -8.7795
rtoes -19.4288
lfemur -24.3805 -12.7288 -21.3951
ltibia 36.1419
lfoot -29.1198 4.98413
ltoes -27.1106
942
root 4.25437 11.5568 7.41274 66.7147 -2.66886 -0.0443535
lowerback 13.5794 -0.473498 -2.49278
upperback -1.20343 -1.27428 -2.62861
thorax -8.94824 -0.563221 -1.14006
lowerneck -26.6107 -4.11175 -6.28547
upperneck 32.4583 -5.81973 7.07224
head 16.6188 -2.10052 2.93516
rclavicle 0 1.53064e-014
rhumerus -60.9933 25.9075 -82.8068
rradius 87.6458
rwrist 27.8771
rhand -54.0001 -456.35
rfingers 7.12502
rthumb -26.4234 68.1714
lclavicle 0 1.53064e-014
lhumerus -66.4534 -29.5019 68.9339
lradius 104.538
lwrist -45.8401
lhand -67.0168 -308.356
lfingers 7.12502
lthumb -38.8027 77.2204
rfemur -9.64038 2.40678 18.3218
rtibia 35.9211
rfoot -8.00812 -8.69899
rtoes -19.7811
lfemur -24.7048 -13.0665 -21.2741
ltibia 36.0829
lfoot -29.3286 4.97823
ltoes -27.1631
943
root 4.25861 11.5598 7.41399 66.6417 -2.52957 -0.0050536
lowerback 13.5586 -0.575616 -2.49985
upperback -1.18432 -1.40719 -2.60801
thorax -8.91505 -0.6263 -1.08604
lowerneck -26.6795 -4.08844 -6.25343
upperneck 32.5365 -5.79482 7.05271
head 16.6694 -2.08829 2.92898
rclavicle 6.36111e-015 9.93923e-015
rhumerus -60.6642 26.2147 -82.8108
rradius 87.3423
rwrist 27.6615
rhand -53.9962 -456.476
rfingers 7.12502
rthumb -26.4197 68.2966
lclavicle 6.36111e-015 9.93923e-015
lhumerus -66.602 -29.602 68.9724
lradius 104.632
lwrist -45.7853
lhand -67.0593 -308.447
lfingers 7.12502
lthumb -38.8428 77.1183
rfemur -9.41901 2.09801 18.4381
rtibia 35.8352
rfoot -7.88047 -8.62215
rtoes -20.1077
lfemur -24.9164 -13.1154 -21.1945
ltibia 36.0372
lfoot -29.3821 4.59321
ltoes -26.8578
944
root 4.26357 11.5645 7.41344 66.557 -2.37686 0.0340678
lowerback 13.553 -0.682854 -2.49964
upperback -1.16366 -1.54586 -2.58277
thorax -8.88884 -0.692321 -1.02997
lowerneck -26.7571 -4.06867 -6.22187
upperneck 32.6175 -5.77744 7.04008
head 16.7247 -2.07802 2.9244
rclavicle -8.74653e-015 -1.07344e-014
rhumerus -60.3292 26.5624 -82.8098
rradius 87.0388
rwrist 27.4519
rhand -54.0144 -456.595
rfingers 7.12502
rthumb -26.4371 68.419
lclavicle -8.74653e-015 -1.07344e-014
lhumerus -66.7583 -29.7363 69.0134
lradius 104.724
lwrist -45.7006
lhand -67.1172 -308.547
lfingers 7.12502
lthumb -38.8974 77.0025
rfemur -9.19923 1.76961 18.5551
rtibia 35.7776
rfoot -7.7442 -8.52824
rtoes -20.3863
lfemur -24.9995 -12.8065 -21.1685
ltibia 36.0116
lfoot -29.2762 3.87532
ltoes -26.304
945
root 4.26915 11.5703 7.41083 66.4481 -2.21841 0.0619659
lowerback 13.571 -0.789944 -2.49664
upperback -1.13664 -1.68423 -2.55376
thorax -8.86898 -0.758175 -0.971326
lowerneck -26.8348 -4.05178 -6.19607
upperneck 32.6863 -5.76668 7.04197
head 16.7757 -2.06911 2.92546
rclavicle -6.36111e-015 -2.0276e-014
rhumerus -59.9846 26.9435 -82.8014
rradius 86.7338
rwrist 27.2684
rhand -54.0612 -456.715
rfingers 7.12502
rthumb -26.4819 68.5457
lclavicle -6.36111e-015 -2.0276e-014
lhumerus -66.9212 -29.8927 69.0625
lradius 104.811
lwrist -45.5969
lhand -67.1852 -308.571
lfingers 7.12502
lthumb -38.9615 76.96
rfemur -8.96322 1.43131 18.6692
rtibia 35.7479
rfoot -7.60277 -8.40924
rtoes -20.6327
lfemur -24.9526 -12.2104 -21.188
ltibia 36.0047
lfoot -29.0748 2.94648
ltoes -25.6047
